# xmcd
# Copyright (C) 1995-1998 Ti Kan
#
# Track frame offsets:
#       182
#       19647
#       20295
#       30015
#       48275
#       52910
#       65105
#       78617
#       82662
#       93192
#       114870
#       122425
#       132092
#       144652
#       157597
#       173922
#       177690
#       191617
#       209635
#
# Disc length: 2802 seconds
#
# Revision: 0
# Processed by: cddbd v1.5.2PL0 Copyright (c) Steve Scherf et al.
# Submitted via: CD-Import v1.0
#
DISCID=e70af013
DTITLE=Michael Galasso - Wong Kar-Wai - More In The Mood For Love
DYEAR=2001
DGENRE=
TTITLE0=I'm In The Mood For Love(Bryan Ferry)
TTITLE1=Li-Zhen's Dialogue
TTITLE2=Angkor Wat Theme 3(Michael Galasso)
TTITLE3=Gun(Michael Galasso)
TTITLE4=Qing Tan(Fu Quan Xiang, Lu Jin Hua)
TTITLE5=Maria Elena(Nat King Cole)
TTITLE6=Dang Zhe Ni Hui Lai(Bai Guang)
TTITLE7=Sang Yuan Ji Zi(Tan Xin Pei)
TTITLE8=Perfidia(Nat King Cole)
TTITLE9=Mian Diu Mian (Face To Face) (Tony Leung)
TTITLE10=Casanova 3(Michael Galasso)
TTITLE11=Angkor Wat Theme Iv (Michael Galasso )
TTITLE12=Solamente Una Vez (Nat King Cole)
TTITLE13=Lan Hua Nu (Rebecca Pan)
TTITLE14=Tiao Dou - Remix(Tony Leung)
TTITLE15=Shuang Ma Hui(Zhang Yun Xian, Hou Li Jun)
TTITLE16=Yumeji's Theme (Extended Version)(Shigeru Umebayashi)
TTITLE17=Hua Yang Nian Hua(Tony Leung, Maggie Cheung)
TTITLE18=Mo-Wan's Dialogue(Tony Leung)
EXTD=
EXTT0=
EXTT1=
EXTT2=
EXTT3=
EXTT4=
EXTT5=
EXTT6=
EXTT7=
EXTT8=
EXTT9=
EXTT10=
EXTT11=
EXTT12=
EXTT13=
EXTT14=
EXTT15=
EXTT16=
EXTT17=
EXTT18=
PLAYORDER=
